# xmcd
#
# Track frame offsets:
#	150
#	11157
#	24394
#	33882
#	47748
#	62205
#	77697
#	90330
#	109307
#	124704
#	136819
#	152131
#	165610
#	180079
#	191834
#	204771
#	218175
#	230497
#	239295
#	246478
#	268090
#
# Disc length: 3725 seconds
#
# Revision: 1
# Processed by: cddbd v1.5.1PL0 Copyright (c) Steve Scherf et al.
# Submitted via: EasyCDDAExtractor 7.0.6.1
#
DISCID=170e8b15
DTITLE=Flat Rock Drives and Guests - Flat Rock Drives and Guests Australia My Coun
DTITLE=try
DYEAR=1900
DGENRE=Country
TTITLE0=My Country
TTITLE1=Shelter
TTITLE2=The Overlanders
TTITLE3=Jumbuck
TTITLE4=We'll Be Right Now Mate
TTITLE5=Ned Kelly
TTITLE6=Ballad Of Pilliga Pete
TTITLE7=Scotland Island Blues
TTITLE8=Australia Down Under
TTITLE9=Click Go The Shears
TTITLE10=Bushfire
TTITLE11=South Australia
TTITLE12=Albury Ram
TTITLE13=Flash Jack From Gundagai
TTITLE14=Streets Of Forbes
TTITLE15=Rybuck Shearer
TTITLE16=Country Muster
TTITLE17=Everyday People
TTITLE18=Waltzing Matilda
TTITLE19=I Still Call Australia Home
TTITLE20=Data
EXTD=
EXTT0=
EXTT1=
EXTT2=
EXTT3=
EXTT4=
EXTT5=
EXTT6=
EXTT7=
EXTT8=
EXTT9=
EXTT10=
EXTT11=
EXTT12=
EXTT13=
EXTT14=
EXTT15=
EXTT16=
EXTT17=
EXTT18=
EXTT19=
EXTT20=
PLAYORDER=
